<?xml version="1.0" standalone="no"?>
<!DOCTYPE svg PUBLIC "-//W3C//DTD SVG 20010904//EN"
 "http://www.w3.org/TR/2001/REC-SVG-20010904/DTD/svg10.dtd">
<svg version="1.0" xmlns="http://www.w3.org/2000/svg"
 width="96.000000pt" height="96.000000pt" viewBox="0 0 96.000000 96.000000"
 preserveAspectRatio="xMidYMid meet">
<metadata>
Created by potrace 1.11, written by Peter Selinger 2001-2013
</metadata>
<g transform="translate(0.000000,96.000000) scale(0.100000,-0.100000)"
fill="#000000" stroke="none">
<path d="M513 949 c-37 -11 -94 -64 -120 -112 -16 -28 -18 -68 -21 -335 -3
-339 1 -370 61 -432 44 -45 84 -60 162 -60 73 0 95 8 140 51 l31 29 18 -35
c11 -19 25 -35 33 -35 10 0 13 47 13 245 l0 246 -102 -3 -101 -3 -3 -37 c-4
-42 -8 -40 81 -42 l50 -1 -1 -116 c-1 -96 -4 -123 -20 -149 -31 -54 -63 -71
-133 -72 -70 -1 -102 16 -136 73 -18 31 -20 53 -20 325 l0 291 25 36 c31 46
77 68 132 66 91 -4 146 -57 151 -145 3 -51 1 -50 58 -46 20 2 21 6 16 59 -8
74 -42 138 -94 176 -36 26 -53 30 -115 33 -40 2 -88 -1 -105 -7z"/>
<path d="M126 941 c-2 -3 -4 -212 -3 -463 l0 -458 37 0 37 0 0 463 0 462 -34
1 c-18 1 -35 -1 -37 -5z"/>
</g>
</svg>
